HIERARCHY
ROOT root
{
	OFFSET	0	13.1	24.9
	CHANNELS 6  Xposition Yposition Zposition Xrotation Yrotation Zrotation
	JOINT spine_1
	{
		OFFSET	0	9.99999	0
		CHANNELS 3  Xrotation Yrotation Zrotation
		JOINT spine_2
		{
			OFFSET	0	112	-10
			CHANNELS 3  Xrotation Yrotation Zrotation
			JOINT spine_3
			{
				OFFSET	0	206.5	19.3
				CHANNELS 3  Xrotation Yrotation Zrotation
				JOINT spine_4
				{
					OFFSET	0	110.4	14.6
					CHANNELS 3  Xrotation Yrotation Zrotation
					JOINT neck_1
					{
						OFFSET	0	71.8	-50.3
						CHANNELS 3  Xrotation Yrotation Zrotation
						JOINT neck_2
						{
							OFFSET	0	86.2	-25.8
							CHANNELS 3  Xrotation Yrotation Zrotation
							JOINT head_ee
							{
								OFFSET	0	179.8	-8.7
								CHANNELS 3  Xrotation Yrotation Zrotation
								End Site
								{
									OFFSET	1	0	0
								}
							}
						}
					}
					JOINT left_clavicle
					{
						OFFSET	-43.2	22.4	-70.8
						CHANNELS 3  Xrotation Yrotation Zrotation
						JOINT left_shoulder
						{
							OFFSET	-93.9	-5.79999	48.7
							CHANNELS 3  Xrotation Yrotation Zrotation
							JOINT left_elbow
							{
								OFFSET	-291.4	-30.8	15.2
								CHANNELS 3  Xrotation Yrotation Zrotation
								JOINT left_lowarm_twist
								{
									OFFSET	-110.7	-3.89999	13.6
									CHANNELS 3  Xrotation Yrotation Zrotation
									JOINT left_hand
									{
										OFFSET	-110.7	-3.89999	13.6
										CHANNELS 3  Xrotation Yrotation Zrotation
										JOINT left_ee
										{
											OFFSET	-80.8	-5.10001	12.1
											CHANNELS 3  Xrotation Yrotation Zrotation
											End Site
											{
												OFFSET	1	0	0
											}
										}
									}
								}
							}
						}
					}
					JOINT right_clavicle
					{
						OFFSET	43.2	22.4	-70.8
						CHANNELS 3  Xrotation Yrotation Zrotation
						JOINT right_shoulder
						{
							OFFSET	93.9	-5.79999	48.7
							CHANNELS 3  Xrotation Yrotation Zrotation
							JOINT right_elbow
							{
								OFFSET	291.4	-30.8	15.2
								CHANNELS 3  Xrotation Yrotation Zrotation
								JOINT right_lowarm_twist
								{
									OFFSET	110.7	-3.89999	13.6
									CHANNELS 3  Xrotation Yrotation Zrotation
									JOINT right_hand
									{
										OFFSET	110.7	-3.89999	13.6
										CHANNELS 3  Xrotation Yrotation Zrotation
										JOINT right_ee
										{
											OFFSET	80.8	-5.10001	12.1
											CHANNELS 3  Xrotation Yrotation Zrotation
											End Site
											{
												OFFSET	1	0	0
											}
										}
									}
								}
							}
						}
					}
				}
			}
		}
	}
	JOINT left_hip
	{
		OFFSET	-82.8	-127.5	0.300001
		CHANNELS 3  Xrotation Yrotation Zrotation
		JOINT left_knee
		{
			OFFSET	-28.2	-396.7	2.2
			CHANNELS 3  Xrotation Yrotation Zrotation
			JOINT left_ankle
			{
				OFFSET	-11.7	-411.3	35.4
				CHANNELS 3  Xrotation Yrotation Zrotation
				JOINT left_toes
				{
					OFFSET	0	-60	-88.6
					CHANNELS 3  Xrotation Yrotation Zrotation
					JOINT left_foot_ee
					{
						OFFSET	-22.5	-16.5	-42.2
						CHANNELS 3  Xrotation Yrotation Zrotation
						End Site
						{
							OFFSET	1	0	0
						}
					}
				}
			}
		}
	}
	JOINT right_hip
	{
		OFFSET	82.8	-127.5	0.300001
		CHANNELS 3  Xrotation Yrotation Zrotation
		JOINT right_knee
		{
			OFFSET	28.2	-396.7	2.2
			CHANNELS 3  Xrotation Yrotation Zrotation
			JOINT right_ankle
			{
				OFFSET	11.7	-411.3	35.4
				CHANNELS 3  Xrotation Yrotation Zrotation
				JOINT right_toes
				{
					OFFSET	0	-60	-88.6
					CHANNELS 3  Xrotation Yrotation Zrotation
					JOINT right_foot_ee
					{
						OFFSET	22.5	-16.5	-42.2
						CHANNELS 3  Xrotation Yrotation Zrotation
						End Site
						{
							OFFSET	1	0	0
						}
					}
				}
			}
		}
	}
}
MOTION
Frames: 10
Frame Time: 0.02
3441.56701715 715.548 -1527.74444566 -157.813394993 78.1064414411 160.999861711 2.8753 0.0250602 -0.992011 2.87584 0.0881306 -0.988407 2.87415 0.246034 -0.961347 2.87287 0.0911274 -0.988135 -13.0216 10.3838 6.45974 -13.0637 15.7251 9.26056 -0.0 0.0 -0.0 -1.43463 21.2371 0.414294 -14.484 -31.3503 71.3096 1.3372 -33.5192 0.402713 -63.2225 -5.68602 5.19015 0.949973 2.76171 7.47317 -0.0 0.0 -0.0 11.1365 -9.84318 -21.028 -0.493031 10.6642 -69.6295 0.391447 10.9743 -0.0376037 -43.4783 3.32845 -4.29914 -2.10306 -28.0014 0.495433 0.0 0.0 0.0 22.1945 16.5116 -16.8273 -27.7564 0.123441 4.21629 30.5917 -4.34702 -4.01683 -12.5227 0.0 0.0 -0.0 0.0 -0.0 1.25771 -0.87987 -10.9465 -6.51599 -0.21292 -0.976809 40.3649 -3.64171 4.89044 -19.8339 0.0 0.0 0.0 0.0 0.0 
3443.63772606 715.548 -1532.66481962 -153.217816753 80.0541840202 156.320308736 2.8753 0.0250602 -0.992011 2.87584 0.0881306 -0.988407 2.87415 0.246034 -0.961347 2.87287 0.0911274 -0.988135 -13.0216 10.3838 6.45974 -13.0637 15.7251 9.26056 -0.0 0.0 -0.0 -1.43463 21.2371 0.414294 -14.484 -31.3503 71.3096 1.3372 -33.5192 0.402713 -63.2225 -5.68602 5.19015 0.949973 2.76171 7.47317 -0.0 0.0 -0.0 11.1365 -9.84318 -21.028 -0.493031 10.6642 -69.6295 0.391447 10.9743 -0.0376037 -43.4783 3.32845 -4.29914 -2.10306 -28.0014 0.495433 0.0 0.0 0.0 22.1945 16.5116 -16.8273 -27.7564 0.123441 4.21629 30.5917 -4.34702 -4.01683 -12.5227 0.0 0.0 -0.0 0.0 -0.0 1.25771 -0.87987 -10.9465 -6.51599 -0.21292 -0.976809 40.3649 -3.64171 4.89044 -19.8339 0.0 0.0 0.0 0.0 0.0 
3428.92914178 717.177 -1529.16650132 -157.177710471 78.3696542806 160.772733529 2.93422 0.123181 -0.885083 2.93463 0.179249 -0.875452 2.93174 0.316954 -0.835518 2.93082 0.181028 -0.875086 -13.391 10.6353 6.06792 -13.4746 16.5097 9.02419 -0.0 0.0 -0.0 -1.75423 21.1933 -0.0512416 -16.1303 -30.8783 71.2886 1.05422 -27.5742 0.258696 -64.2451 -5.81492 5.2136 0.725424 4.08601 6.5073 -0.0 0.0 -0.0 10.9717 -10.2469 -20.659 0.410101 12.4345 -71.3544 0.525637 14.5951 -0.0673131 -44.2096 3.40957 -4.34634 -1.54871 -25.547 -1.39874 0.0 0.0 0.0 26.1223 14.9236 -17.6975 -27.871 0.119706 4.23347 27.3967 -1.89325 -3.64146 -14.5592 0.0 0.0 -0.0 0.0 -0.0 -0.556769 -1.37546 -12.1633 -4.94033 -0.17165 -0.73853 40.1181 -2.79032 4.87143 -19.4901 0.0 0.0 0.0 0.0 0.0 
3411.54120848 714.253 -1525.90765697 -161.135886314 77.1512529438 165.39632706 3.01237 0.274654 -0.818121 3.01268 0.326155 -0.798988 3.008 0.448768 -0.737136 3.00739 0.326723 -0.798755 -13.6718 10.6817 5.55306 -13.7923 16.9594 8.59912 -0.0 0.0 -0.0 -2.36393 21.7796 -0.822928 -17.7771 -30.2141 70.9477 0.843725 -22.6826 0.169229 -64.9315 -5.90165 5.22805 0.598533 5.67432 6.30239 -0.0 0.0 -0.0 11.077 -9.90369 -20.9058 1.84585 13.3453 -72.8783 0.635629 17.4778 -0.0977078 -44.3772 3.42824 -4.35701 -0.969873 -22.849 -3.50395 0.0 0.0 0.0 29.0064 13.4713 -18.1744 -28.7281 0.0906784 4.36181 24.4296 -1.39427 -3.29712 -16.0134 0.0 0.0 -0.0 0.0 -0.0 -2.53853 -1.66256 -13.1904 -3.94181 -0.142107 -0.588137 39.0326 -3.84877 4.77418 -20.2224 0.0 0.0 0.0 0.0 0.0 
3393.9048065 714.35 -1515.63887819 -165.02125391 74.8968548887 169.575125409 3.025 0.456701 -0.710623 3.02514 0.500993 -0.680124 3.0191 0.602425 -0.592155 3.01896 0.501347 -0.679862 -14.785 10.5921 5.35557 -14.9493 17.0676 8.56044 -0.0 0.0 -0.0 -2.22653 21.9692 -0.594422 -19.7526 -29.93 70.3847 0.744591 -20.2464 0.132945 -65.4387 -5.96583 5.23805 0.501367 5.75482 5.69467 -0.0 0.0 -0.0 11.1031 -10.0911 -20.9304 3.06582 14.2312 -73.6672 0.718718 19.5974 -0.124129 -45.1173 3.51108 -4.40349 -0.738601 -21.3375 -4.21771 0.0 0.0 0.0 31.4115 12.3264 -17.9252 -28.5011 0.0985509 4.32787 22.4417 1.02953 -3.04465 -17.0396 0.0 0.0 -0.0 0.0 -0.0 -4.09665 -1.84434 -13.6555 -3.39459 -0.124806 -0.505937 39.8306 -3.2218 4.84539 -19.5828 0.0 0.0 0.0 0.0 0.0 
3383.90914455 717.881 -1508.03656475 -165.328511815 73.80933276 169.838748531 3.10774 0.447537 -0.772649 3.10794 0.495794 -0.742607 3.1014 0.606255 -0.655542 3.10114 0.495119 -0.743058 -15.2609 10.4914 4.83692 -15.462 17.2444 8.12031 -0.0 0.0 -0.0 -2.27912 22.3098 -0.608775 -21.3775 -29.3161 70.7755 0.610645 -16.8305 0.0903391 -65.7919 -6.01058 5.24468 0.497765 6.31047 5.89329 -0.0 0.0 -0.0 11.0801 -9.75501 -20.9318 4.63457 14.6878 -74.1751 0.823995 22.2043 -0.161696 -45.3303 3.53504 -4.41667 -0.432769 -19.3029 -5.20302 0.0 0.0 0.0 32.8918 11.3412 -17.8218 -28.6555 0.0932094 4.35097 20.7577 1.80359 -2.83604 -17.8279 0.0 0.0 -0.0 0.0 -0.0 -5.16114 -1.96664 -13.4192 -3.04706 -0.11341 -0.453819 39.0895 -3.91097 4.7791 -19.9486 0.0 0.0 0.0 0.0 0.0 
3370.00251656 717.983 -1492.95011432 -166.751254034 71.8298274072 171.255171998 3.09119 0.12275 -0.872674 3.0916 0.17803 -0.863096 3.08876 0.311516 -0.824373 3.08785 0.177417 -0.863222 -16.1033 10.8466 4.49443 -16.3785 18.2278 8.07561 -0.0 0.0 -0.0 -2.22377 23.1656 -0.381256 -23.1139 -28.567 71.3647 0.399566 -11.1962 0.0391646 -65.9256 -6.02753 5.24712 0.08225 6.73989 3.3471 -0.0 0.0 -0.0 10.887 -9.44278 -20.6025 5.68292 15.3372 -74.7735 0.961644 25.4713 -0.217349 -46.0248 3.61346 -4.45901 0.0298575 -15.522 -6.53104 0.0 0.0 0.0 34.143 10.4668 -17.154 -27.7942 0.122212 4.22196 16.5357 0.610494 -2.30857 -18.7095 0.0 0.0 -0.0 0.0 -0.0 -5.54689 0.492728 -12.2968 -2.76255 -0.103846 -0.411204 38.5871 -7.76522 4.73831 -20.5322 0.0 0.0 0.0 0.0 0.0 
3361.22528995 715.951 -1484.78208962 -166.435307436 72.009644572 170.413199374 3.45246 0.0348244 -0.837435 3.45285 0.0880401 -0.833522 3.45139 0.212859 -0.810681 3.45048 0.0821602 -0.834122 -16.5552 11.0093 4.35203 -16.8695 18.6733 8.08689 -0.0 0.0 -0.0 -2.15084 23.5652 -0.211562 -24.3699 -27.8134 72.1818 0.241811 -6.83086 0.0144316 -66.0484 -6.0431 5.24932 -0.188144 7.10718 1.73685 -0.0 0.0 -0.0 10.8463 -8.82668 -20.6012 6.38871 15.6236 -75.1089 1.06997 27.9242 -0.266028 -46.3967 3.65568 -4.48131 0.375402 -12.4922 -7.52937 0.0 0.0 0.0 35.4677 9.74911 -16.6092 -26.7916 0.153521 4.07128 12.8118 -0.741322 -1.82235 -19.5259 0.0 0.0 -0.0 0.0 -0.0 -6.32191 2.28989 -11.5358 -2.70742 -0.101968 -0.40295 38.0726 -10.678 4.70831 -21.0529 0.0 0.0 0.0 0.0 0.0 
3361.16720181 715.951 -1483.46343951 -166.68633543 71.665010436 170.677389369 3.45246 0.0348244 -0.837435 3.45285 0.0880401 -0.833522 3.45139 0.212859 -0.810681 3.45048 0.0821602 -0.834122 -16.5552 11.0093 4.35203 -16.8695 18.6733 8.08689 -0.0 0.0 -0.0 -2.15084 23.5652 -0.211562 -24.3699 -27.8134 72.1818 0.241811 -6.83086 0.0144316 -66.0484 -6.0431 5.24932 -0.188144 7.10718 1.73685 -0.0 0.0 -0.0 10.8463 -8.82668 -20.6012 6.38871 15.6236 -75.1089 1.06997 27.9242 -0.266028 -46.3967 3.65568 -4.48131 0.375402 -12.4922 -7.52937 0.0 0.0 0.0 35.4677 9.74911 -16.6092 -26.7916 0.153521 4.07128 12.8118 -0.741322 -1.82235 -19.5259 0.0 0.0 -0.0 0.0 -0.0 -6.32191 2.28989 -11.5358 -2.70742 -0.101968 -0.40295 38.0726 -10.678 4.70831 -21.0529 0.0 0.0 0.0 0.0 0.0 
3361.16333232 715.951 -1483.36843684 -166.70404766 71.6401708804 170.696050216 3.45246 0.0348244 -0.837435 3.45285 0.0880401 -0.833522 3.45139 0.212859 -0.810681 3.45048 0.0821602 -0.834122 -16.5552 11.0093 4.35203 -16.8695 18.6733 8.08689 -0.0 0.0 -0.0 -2.15084 23.5652 -0.211562 -24.3699 -27.8134 72.1818 0.241811 -6.83086 0.0144316 -66.0484 -6.0431 5.24932 -0.188144 7.10718 1.73685 -0.0 0.0 -0.0 10.8463 -8.82668 -20.6012 6.38871 15.6236 -75.1089 1.06997 27.9242 -0.266028 -46.3967 3.65568 -4.48131 0.375402 -12.4922 -7.52937 0.0 0.0 0.0 35.4677 9.74911 -16.6092 -26.7916 0.153521 4.07128 12.8118 -0.741322 -1.82235 -19.5259 0.0 0.0 -0.0 0.0 -0.0 -6.32191 2.28989 -11.5358 -2.70742 -0.101968 -0.40295 38.0726 -10.678 4.70831 -21.0529 0.0 0.0 0.0 0.0 0.0 
